
<svg xmlns="http://www.w3.org/2000/svg" width="512" height="512" viewBox="0 0 512 512">
  <rect width="512" height="512" rx="96" fill="#2563eb"/>
  <g transform="translate(102.4 102.4) scale(12.799999999999999)"
     fill="none" stroke="#ffffff" stroke-width="1.6"
     stroke-linecap="round" stroke-linejoin="round">
    <path d="M2 9a3 3 0 0 1 0 6v2a2 2 0 0 0 2 2h16a2 2 0 0 0 2-2v-2a3 3 0 0 1 0-6V7a2 2 0 0 0-2-2H4a2 2 0 0 0-2 2Z"/>
    <path d="M13 5v2"/><path d="M13 17v2"/><path d="M13 11v2"/>
  </g>
</svg>